<svg width="154" height="154" viewBox="0 0 154 154" fill="none" xmlns="http://www.w3.org/2000/svg">
<circle cx="77" cy="77" r="74.5" stroke="#5A8B3B" stroke-width="5"/>
<path d="M15 81.0764C16.8333 105.41 35.7 150.576 96.5 136.576C80.8333 120.91 42.6 87.8764 15 81.0764Z" fill="#5A8B3B"/>
<path d="M128.5 113.076C123 123 110.5 131 100.5 135C72.5 102.424 35.3333 84.0764 15 75.5764C74.6 79.5764 115.5 102.243 128.5 113.076Z" fill="#5A8B3B"/>
<path d="M139.5 86.0763C138.7 96.0763 133.333 106.167 130.5 110C110.5 93.9999 85.3333 85.743 75.5 83.5763C105.9 76.7763 130.833 82.4097 139.5 86.0763Z" fill="#5A8B3B"/>
<path d="M139 82.0764C121 75.2764 100.5 76.5764 92.5 78.0764C92.5 71.2765 101.167 71.9098 105.5 73.0764C107.1 66.6764 114.5 69.0765 118 71.0765C130.8 57.0765 137.333 72.5764 139 82.0764Z" fill="#5A8B3B"/>
<path d="M55 78.0764C41.8 74.0764 23.1667 72.4097 15.5 72.0764C18.3 63.2764 27.6667 66.7431 32 69.5764C42.4 60.7764 48.3333 69.2431 50 74.5764C53.2 74.5764 54.6667 76.9097 55 78.0764Z" fill="#5A8B3B"/>
<path d="M32 67.0762C27.2 61.8762 19.3333 63.9096 16 65.5762C18.5 49.5763 33.2 16.0763 76 14.0763C118.8 12.0763 136.167 49.9096 139 68.5762C129.4 56.5762 119.333 63.2429 115.5 68.0762C109.5 63.6762 105.667 67.5762 104.5 70.0762C92.5 66.4762 88.8333 73.9096 88.5 78.0762C84.5 75.6762 76.1667 79.0762 72.5 81.0762H65C63 79.0762 60.1667 78.9096 59 79.0762C59 74.2762 54.6667 72.0763 52.5 71.5763C44.5 58.3763 35.5 63.0763 32 67.0762Z" fill="#5A8B3B"/>
</svg>
